<svg width="279" height="279" viewBox="0 0 279 279" fill="none" xmlns="http://www.w3.org/2000/svg">
<g opacity="0.5" clip-path="url(#clip0)">
<path d="M274.4 158.7L254.5 148.5C253.462 147.939 252.602 147.098 252.019 146.073C251.436 145.047 251.152 143.879 251.2 142.7C251.318 138.629 251.185 134.555 250.8 130.5C250.701 129.323 250.941 128.143 251.49 127.098C252.039 126.053 252.875 125.186 253.9 124.6L273.2 113.3C274.729 112.415 275.88 110.999 276.433 109.321C276.987 107.643 276.904 105.821 276.2 104.2L257.3 61.6C256.591 59.9603 255.297 58.6429 253.671 57.9037C252.045 57.1644 250.202 57.0562 248.5 57.6L227.1 64.4C225.998 64.7547 224.816 64.783 223.699 64.4813C222.581 64.1797 221.574 63.561 220.8 62.7C217.982 59.7152 215.011 56.8781 211.9 54.2C211.006 53.4454 210.344 52.4535 209.99 51.3387C209.636 50.224 209.605 49.0318 209.9 47.9L215.6 26.3C216.04 24.5766 215.836 22.7517 215.026 21.1681C214.216 19.5845 212.855 18.3513 211.2 17.7L167.7 0.999989C166.045 0.357044 164.21 0.348549 162.549 0.976137C160.887 1.60372 159.517 2.82312 158.7 4.39999L148.5 24.3C147.922 25.3229 147.077 26.17 146.056 26.7511C145.034 27.3322 143.875 27.6255 142.7 27.6C138.6 27.5 134.5 27.6 130.5 27.9C129.332 28.0208 128.154 27.8019 127.108 27.2698C126.061 26.7377 125.19 25.9148 124.6 24.9L113.3 5.49999C112.4 3.98807 110.977 2.85824 109.3 2.32393C107.623 1.78962 105.809 1.88782 104.2 2.59999L61.5999 21.5C59.9679 22.1896 58.6527 23.4645 57.9126 25.0742C57.1725 26.6839 57.0609 28.5122 57.5999 30.2L64.3999 51.6C64.7629 52.7172 64.7955 53.9154 64.494 55.0507C64.1924 56.1861 63.5694 57.2102 62.6999 58C59.6909 60.7937 56.8524 63.7658 54.1999 66.9C53.4454 67.7937 52.4534 68.4557 51.3387 68.8095C50.2239 69.1634 49.0318 69.1948 47.8999 68.9L26.2999 63.2C24.5758 62.713 22.7313 62.8959 21.1363 63.7119C19.5413 64.528 18.3138 65.9168 17.6999 67.6L0.999928 111C0.356983 112.655 0.348488 114.49 0.976076 116.151C1.60366 117.812 2.82306 119.183 4.39993 120L24.2999 130.3C25.3223 130.853 26.1717 131.678 26.7541 132.684C27.3365 133.69 27.6293 134.838 27.5999 136C27.4666 140.067 27.5666 144.167 27.8999 148.3C28.0207 149.468 27.8019 150.646 27.2697 151.692C26.7376 152.739 25.9147 153.61 24.8999 154.2L5.49993 165.5C3.98801 166.4 2.85818 167.823 2.32387 169.5C1.78956 171.177 1.88776 172.991 2.59993 174.6L21.4999 217.2C22.1891 218.829 23.4693 220.137 25.0833 220.86C26.6973 221.584 28.5253 221.669 30.1999 221.1L51.5999 214.3C52.7275 213.961 53.9282 213.951 55.0616 214.27C56.195 214.588 57.2141 215.223 57.9999 216.1C60.8193 219.084 63.7898 221.921 66.8999 224.6C67.7852 225.339 68.4429 226.313 68.7969 227.411C69.1509 228.508 69.1866 229.683 68.8999 230.8L63.1999 252.5C62.7171 254.211 62.9031 256.041 63.7202 257.62C64.5373 259.198 65.9244 260.407 67.5999 261L111 277.8C112.657 278.42 114.484 278.418 116.139 277.792C117.795 277.167 119.167 275.961 120 274.4L130.3 254.5C130.835 253.462 131.656 252.6 132.666 252.015C133.677 251.43 134.834 251.147 136 251.2C140.104 251.317 144.212 251.183 148.3 250.8C149.476 250.701 150.657 250.941 151.702 251.49C152.747 252.039 153.614 252.875 154.2 253.9L165.5 273.2C166.368 274.746 167.784 275.911 169.468 276.466C171.152 277.022 172.982 276.927 174.6 276.2L217.2 257.3C218.836 256.591 220.146 255.292 220.869 253.662C221.591 252.031 221.674 250.189 221.1 248.5L214.3 227.1C213.97 225.987 213.963 224.804 214.282 223.688C214.601 222.572 215.232 221.57 216.1 220.8C219 218 221.9 215 224.6 211.9C225.339 211.015 226.313 210.357 227.411 210.003C228.508 209.649 229.683 209.613 230.8 209.9L252.5 215.6C254.21 216.035 256.02 215.828 257.587 215.017C259.154 214.206 260.368 212.847 261 211.2L277.8 167.7C278.42 166.043 278.418 164.216 277.792 162.561C277.167 160.905 275.961 159.533 274.4 158.7V158.7Z" stroke="#2CFFBE" stroke-miterlimit="10"/>
<path d="M195.798 195.756C226.923 164.632 226.923 114.168 195.798 83.0435C164.673 51.9188 114.21 51.9188 83.0849 83.0436C51.9601 114.168 51.9601 164.632 83.0849 195.756C114.21 226.881 164.673 226.881 195.798 195.756Z" stroke="#2CFFBE" stroke-miterlimit="10"/>
</g>
<defs>
<clipPath id="clip0">
<rect width="278.8" height="278.8" fill="white"/>
</clipPath>
</defs>
</svg>
