<svg id="Layer_1" data-name="Layer 1" xmlns="http://www.w3.org/2000/svg" xmlns:xlink="http://www.w3.org/1999/xlink" viewBox="0 0 217.42 166.98"><defs><linearGradient id="linear-gradient" x1="-1468.06" y1="140.28" x2="-1531.13" y2="194.01" gradientTransform="translate(1240.53 -826.59) rotate(-35.26)" gradientUnits="userSpaceOnUse"><stop offset="0.01"/><stop offset="0.13" stop-opacity="0.69"/><stop offset="0.25" stop-opacity="0.32"/><stop offset="1" stop-opacity="0"/></linearGradient><linearGradient id="linear-gradient-2" x1="156.15" y1="135.8" x2="59.11" y2="160.01" gradientTransform="matrix(1, 0, 0, 1, 0, 0)" xlink:href="#linear-gradient"/><linearGradient id="linear-gradient-3" x1="627.71" y1="153.03" x2="679.95" y2="184.09" gradientTransform="translate(-611.97 -29)" gradientUnits="userSpaceOnUse"><stop offset="0.01"/><stop offset="0.08" stop-opacity="0.69"/><stop offset="0.21" stop-opacity="0.32"/><stop offset="1" stop-opacity="0"/></linearGradient><linearGradient id="linear-gradient-4" x1="86.81" y1="146.28" x2="74.51" y2="89.23" gradientTransform="matrix(1, 0, 0, 1, 0, 0)" xlink:href="#linear-gradient-3"/><linearGradient id="linear-gradient-5" x1="648.05" y1="150.32" x2="620.14" y2="174.25" xlink:href="#linear-gradient-3"/><linearGradient id="linear-gradient-6" x1="640.67" y1="134.89" x2="630.34" y2="156.94" gradientTransform="translate(-573.02)" xlink:href="#linear-gradient-3"/><linearGradient id="linear-gradient-7" x1="638.15" y1="162.21" x2="657.4" y2="166.54" xlink:href="#linear-gradient-3"/><linearGradient id="linear-gradient-8" x1="651.82" y1="123.76" x2="613.84" y2="144.02" gradientTransform="translate(-573.02)" xlink:href="#linear-gradient-3"/><linearGradient id="linear-gradient-9" x1="136.12" y1="102.09" x2="139.81" y2="151.83" gradientTransform="matrix(1, 0, 0, 1, 0, 0)" xlink:href="#linear-gradient-3"/><linearGradient id="linear-gradient-10" x1="241.45" y1="129.05" x2="188.17" y2="146.95" gradientTransform="matrix(1, 0, 0, 1, 0, 0)" xlink:href="#linear-gradient-3"/><linearGradient id="linear-gradient-11" x1="142.41" y1="137.3" x2="111.77" y2="133.36" gradientTransform="matrix(1, 0, 0, 1, 0, 0)" xlink:href="#linear-gradient-3"/><linearGradient id="linear-gradient-12" x1="113.81" y1="140.61" x2="186.67" y2="127.98" gradientTransform="matrix(1, 0, 0, 1, 0, 0)" xlink:href="#linear-gradient-3"/><linearGradient id="linear-gradient-13" x1="231.47" y1="128.46" x2="204.2" y2="120.45" gradientTransform="matrix(1, 0, 0, 1, 0, 0)" xlink:href="#linear-gradient-3"/><linearGradient id="linear-gradient-14" x1="167.98" y1="113.24" x2="187.88" y2="280.5" gradientTransform="matrix(1, 0, 0, 1, 0, 0)" xlink:href="#linear-gradient-3"/><linearGradient id="linear-gradient-15" x1="132.81" y1="159.69" x2="158.39" y2="154.55" gradientTransform="matrix(1, 0, 0, 1, 0, 0)" xlink:href="#linear-gradient-3"/><linearGradient id="linear-gradient-16" x1="137.49" y1="132.96" x2="150.6" y2="119.38" gradientTransform="matrix(1, 0, 0, 1, 0, 0)" xlink:href="#linear-gradient-3"/><linearGradient id="linear-gradient-17" x1="126.82" y1="138.74" x2="155.8" y2="135.34" gradientTransform="matrix(1, 0, 0, 1, 0, 0)" xlink:href="#linear-gradient-3"/><linearGradient id="linear-gradient-18" x1="259.16" y1="158.75" x2="139.4" y2="148.23" gradientTransform="matrix(1, 0, 0, 1, 0, 0)" xlink:href="#linear-gradient-3"/></defs><title>11</title><path d="M110.4,29.3A41.68,41.68,0,0,0,80.72,45.68c-6.93,9.3-9.6,21-11.72,32.41a42.5,42.5,0,0,1-2.63,9.85c-2.55,5.61-7.44,9.73-11.57,14.3C44.28,113.91,38.87,129.69,39,145.32c.07,13.79,4.59,34.5,18.14,41.07a96.9,96.9,0,0,0,64.15,7c13.59-3.24,26.76-9.48,40.73-9.15s27.12,7.23,41.08,7.91a47.43,47.43,0,0,0,40.58-20.07,65.35,65.35,0,0,0,8.63-19.43,109.22,109.22,0,0,0,4.06-25.52C257.39,99.64,238.93,73,216,59.26,164.8,28.63,124.58,28.18,110.4,29.3Z" transform="translate(-38.95 -29)" fill="#2559b2" opacity="0.18" style="isolation:isolate"/><path d="M88.33,161.63a9.93,9.93,0,0,0,3.84,2.67c6.48,3,13.26,5.78,20.39,6.4,10.49.91,20.77-2.77,30.65-6.39-1,.16-4.59-3-5.51-3.64-1.81-1.19-3.59-2.43-5.37-3.65-2.83-1.93-6.36-2.58-9.72-3.1A48.63,48.63,0,0,0,100,155.85,45.8,45.8,0,0,0,88.33,161.63Z" transform="translate(-38.95 -29)" fill="#2559b2"/><path d="M88.33,161.63a9.93,9.93,0,0,0,3.84,2.67c6.48,3,13.26,5.78,20.39,6.4,10.49.91,20.77-2.77,30.65-6.39-1,.16-4.59-3-5.51-3.64-1.81-1.19-3.59-2.43-5.37-3.65-2.83-1.93-6.36-2.58-9.72-3.1A48.63,48.63,0,0,0,100,155.85,45.8,45.8,0,0,0,88.33,161.63Z" transform="translate(-38.95 -29)" fill="url(#linear-gradient)"/><path d="M122.81,141.52c-4-4.25-8.11-8.56-13.12-11.6s-11.13-4.7-16.79-3.2l14,20.62c2.7,4,5.45,8,9.23,11,6.62,5.18,18.92,8.06,27.05,5.57-1.26-3.85-6.28-7.47-9.07-10.42Z" transform="translate(-38.95 -29)" fill="#2559b2"/><path d="M122.81,141.52c-4-4.25-8.11-8.56-13.12-11.6s-11.13-4.7-16.79-3.2l14,20.62c2.7,4,5.45,8,9.23,11,6.62,5.18,18.92,8.06,27.05,5.57-1.26-3.85-6.28-7.47-9.07-10.42Z" transform="translate(-38.95 -29)" fill="url(#linear-gradient-2)"/><path d="M80,174.47c5.23,0,10.67.61,15.13,3.34a1.93,1.93,0,0,1,.92.93c.35,1-.88,1.79-1.9,2.12a60.1,60.1,0,0,1-19.3,2.47,110.62,110.62,0,0,1-13-1.07A9.83,9.83,0,0,1,57.55,181a3.54,3.54,0,0,1-1.6-3.88c.53-1.48,2.26-2.17,3.83-2.25C66.43,174.45,73.28,174.5,80,174.47Z" transform="translate(-38.95 -29)" fill="#2559b2" opacity="0.44" style="isolation:isolate"/><path d="M216.74,170.45l10.59,1.47a2.71,2.71,0,0,1,1.42.48,1.86,1.86,0,0,1,.24,2.23,5.41,5.41,0,0,1-1.72,1.68c2.51.6,6.88.47,6.76,4.05a3.52,3.52,0,0,1-2.15,3.06,6.94,6.94,0,0,1-2.36.37c-7.83.27-15.78.54-23.36-1.43-1.45-.37-3.16-1.19-3.16-2.68,0-.53.23-1,.26-1.56.17-3.39-7.07-1.4-8.93-1.29-4.14.24-8.28.4-12.42.51-8.46.23-16.92.22-25.37.1a45.4,45.4,0,0,0-8,.33c-2.08.35-4.1,1-6.14,1.51a52.48,52.48,0,0,1-20.58,1.06c-3.11-.46-6.93-2.13-6.73-5.27.17-2.69,3.23-4.09,5.84-4.79A89.92,89.92,0,0,1,132.67,168a174.69,174.69,0,0,1,21.1-1.05c15.31-.12,30.62-.13,45.94-.14C204.86,166.77,211.64,169.74,216.74,170.45Z" transform="translate(-38.95 -29)" fill="#2559b2" opacity="0.44" style="isolation:isolate"/><polygon points="36.99 116.58 36.35 147.84 32.11 147.84 30.89 122.99 28.23 147.84 23.37 148.65 22.25 115.55 36.99 116.58" fill="#2559b2"/><polygon points="36.99 116.58 36.35 147.84 32.11 147.84 30.89 122.99 28.23 147.84 23.37 148.65 22.25 115.55 36.99 116.58" fill="url(#linear-gradient-3)"/><path d="M89.74,117a115.94,115.94,0,0,1-6.32,10.33A4.63,4.63,0,0,1,80,128.91a5.64,5.64,0,0,1-1.57-.24c-1.51-.37-3-.81-4.5-1.3a2,2,0,0,1-.36-.18h0c-1-.73-1.22-2.74-1.44-3.9-.12-.64-.71-3.18.38-3.37.55-.1,2.35,1.5,2.86,1.81a36.15,36.15,0,0,0,3.3,1.77.8.8,0,0,0,.45.12.83.83,0,0,0,.43-.29,39.71,39.71,0,0,0,5.71-8.86c.44.19.87.4,1.3.62q.9.47,1.77,1l.18.1C89,116.43,89.35,116.68,89.74,117Z" transform="translate(-38.95 -29)" fill="#2559b2"/><path d="M89.74,117a115.94,115.94,0,0,1-6.32,10.33A4.63,4.63,0,0,1,80,128.91a5.64,5.64,0,0,1-1.57-.24c-1.51-.37-3-.81-4.5-1.3a2.53,2.53,0,0,1-.37-.18c-.08,0-.29-.78-.32-.88a6.9,6.9,0,0,1-.23-1,7.41,7.41,0,0,1,0-2c0-.23.06-.4.27-.22s.13.19.22.27.31.22.46.33c.42.3.84.6,1.29.88A11.84,11.84,0,0,0,78,125.77a5.33,5.33,0,0,0,2,.29,3,3,0,0,0,2.36-1.75c.35-.54.69-1.1,1-1.66a10.73,10.73,0,0,1,1.1-1.59c.88-1.06,1.75-2.12,2.63-3.17a14.1,14.1,0,0,1,1.48-1.71C89,116.43,89.35,116.68,89.74,117Z" transform="translate(-38.95 -29)" fill="url(#linear-gradient-4)"/><polygon points="26.27 147.35 26.27 118.37 22.25 115.55 23.61 147.84 26.27 147.35" fill="url(#linear-gradient-5)"/><path d="M64.34,117.92a35.82,35.82,0,0,0-3.3,1.87c-2.27,1.45-1.86,2.12-1.44,4.63a100,100,0,0,1,1.33,16.21,14.32,14.32,0,0,0,.27,3.92,11.09,11.09,0,0,1,.84,2.34c3.5.48,11.5,2.28,13.89-1.31s-1.83-15.66-1.06-21.08-6.27-6-6.27-6Z" transform="translate(-38.95 -29)" fill="#2559b2"/><path d="M71.49,137.92l.81-4.54a1.29,1.29,0,0,1,1.16-1l8.72-.68a.87.87,0,0,1,.91,1l-3.36,15.13a.87.87,0,0,1-.84.67h-8a.86.86,0,0,1-.85-1Z" transform="translate(-38.95 -29)" fill="#473f47"/><path d="M69.16,143l-6.34,4.28-1-1.33a23.49,23.49,0,0,1-.85-6.77c.15-3.41,0-2.19,0-2.19l8.92,5.64Z" transform="translate(-38.95 -29)" fill="url(#linear-gradient-6)"/><path d="M72.31,112.63a6.46,6.46,0,0,1-.06,1.08,6.59,6.59,0,0,1-.87,2.11,1.62,1.62,0,0,1-.45.58,1.78,1.78,0,0,1-1.31.11.65.65,0,0,0-.31,0c-.25.1-.28.44-.27.71l.07,1.24a.77.77,0,0,1-.08.5.81.81,0,0,1-.33.21,2.66,2.66,0,0,1-2.68-.61,1.92,1.92,0,0,1-.42-.56,2.45,2.45,0,0,1-.15-.65c-.15-1.19,0-2.39-.11-3.59a11.39,11.39,0,0,1-.09-3,3.28,3.28,0,0,1,1.92-2.42,4.9,4.9,0,0,1,3.14.07,14.71,14.71,0,0,1,1.46.49,1,1,0,0,1,.57.42c.19.38,0,.93,0,1.34C72.3,111.34,72.31,112,72.31,112.63Z" transform="translate(-38.95 -29)" fill="#ffbbab"/><path d="M72.32,107.74c.11.24.27.45.39.69a1,1,0,0,1,.13.76,1.11,1.11,0,0,1-.38.51,4.32,4.32,0,0,1-3,.75,5.53,5.53,0,0,0-.91,0,1.27,1.27,0,0,0-.8.39,2.91,2.91,0,0,0-.39,1.35s0,.06,0,.08,0,0,0,0c-.34,0-.66-.35-1-.22a.51.51,0,0,0-.25.43,1.08,1.08,0,0,0,.09.61.61.61,0,0,1,.07.24.47.47,0,0,1,0,.16l-.21.59a.89.89,0,0,1-.38.54.88.88,0,0,1-.8-.15,1.23,1.23,0,0,1-.44-.37,1.18,1.18,0,0,1-.16-.42,19.83,19.83,0,0,1-.35-4.49,2.55,2.55,0,0,1,.14-1,2.34,2.34,0,0,1,1.76-1.11,18.87,18.87,0,0,1,4-.29,5.8,5.8,0,0,1,1.25.08,2,2,0,0,1,1.07.61" transform="translate(-38.95 -29)" fill="#963637"/><path d="M70.25,114a1,1,0,0,0-.47.51s0,.06,0,.08,0,0,.07,0a10.45,10.45,0,0,0,1.37,0,2.61,2.61,0,0,0,1-.26.12.12,0,0,0,.07,0,.15.15,0,0,0,0-.07.68.68,0,0,0-.74-.64A3,3,0,0,0,70.25,114Z" transform="translate(-38.95 -29)" fill="#963637"/><path d="M65.45,117.35s-1,.68-1,1.42,5.29,15.55,5.29,15.55.12-14.18,0-14.84a10.9,10.9,0,0,0-.71-1.86S67,119.14,65.45,117.35Z" transform="translate(-38.95 -29)" fill="#fff"/><polygon points="28.23 89.69 27.87 90.84 28.47 91.33 28.75 99.38 30.84 105.32 30.89 99.28 29.1 91.3 29.75 90.17 28.89 89.69 28.23 89.69" fill="#212741"/><path d="M71.06,139.61a13.64,13.64,0,0,1-2.1,2.13l-.48.38a1.18,1.18,0,0,1-.62.29,1.07,1.07,0,0,1-.46-.11q-4.59-1.78-9-4c-1.22-.63-2.57-1.45-2.83-2.8a4.51,4.51,0,0,1,0-1.42,40.92,40.92,0,0,1,2.66-10c.37-.9.83-2.64,1.79-3.23h0l.11,0,.14-.07c1.3-.47,2.43.83,2.79,1.93a8.84,8.84,0,0,1-.15,4.86,30.13,30.13,0,0,0-1.11,4.78,1.28,1.28,0,0,0,.06.67,1.41,1.41,0,0,0,.5.5Z" transform="translate(-38.95 -29)" fill="#2559b2"/><path d="M71.06,176.84l.23,2.3,1.45.27.65-.57,1.11.88h4.35s1.11-1.91-1.3-2.56l-2.4-.65Z" transform="translate(-38.95 -29)" fill="#212741"/><path d="M62.56,176.84l.23,2.3,1.45.27.65-.57,1.1.88h4.36s1.1-1.91-1.3-2.56l-2.41-.65Z" transform="translate(-38.95 -29)" fill="#212741"/><polygon points="30.89 122.99 32.84 121.41 34.21 147.51 32.11 147.84 30.89 122.99" fill="url(#linear-gradient-7)"/><path d="M69,141.74l-.48.38a1.18,1.18,0,0,1-.62.29,1.07,1.07,0,0,1-.46-.11q-4.59-1.78-9-4c-1.22-.63-2.57-1.45-2.83-2.8a4.51,4.51,0,0,1,0-1.42,40.92,40.92,0,0,1,2.66-10c.37-.9.83-2.64,1.79-3.23h0l.11,0,.14-.07a2.92,2.92,0,0,1,2.79,1.93s-4.63,9.48-4.43,10.91,9.92,6.07,9.92,6.07Z" transform="translate(-38.95 -29)" fill="url(#linear-gradient-8)"/><path d="M73.24,140.41a1.72,1.72,0,0,1,.69.34.69.69,0,0,1,.23.7,2.31,2.31,0,0,1-.27.42c-.12.22-.14.5-.26.73a1.57,1.57,0,0,1-1,.7,3.58,3.58,0,0,1-3.51-.32c-.68-.59-2-3-.54-3.35a5.86,5.86,0,0,1,1.9.2A16.88,16.88,0,0,1,73.24,140.41Z" transform="translate(-38.95 -29)" fill="#ffbbab"/><polygon points="159.44 128.43 116.7 128.43 124.27 107.11 153.06 107.11 159.44 128.43" fill="#2559b2"/><polygon points="159.44 128.43 116.7 128.43 124.27 107.11 153.06 107.11 159.44 128.43" fill="url(#linear-gradient-9)"/><rect x="76.83" y="29.68" width="126.1" height="85.43" rx="7.67" fill="#2559b2"/><path d="M220,131.34a.61.61,0,0,0,.36.63,1.68,1.68,0,0,0,.77.1h1.12a.6.6,0,0,1,.33.07.57.57,0,0,1,.16.46l.12,4.76a6.89,6.89,0,0,1-.44,3.2c-.24.49-.6.91-.85,1.39a1.89,1.89,0,0,0-.21,1.56c1.9.08,3.8.08,5.69,0a1.44,1.44,0,0,0,1-.3,1.26,1.26,0,0,0,.27-.51,40.48,40.48,0,0,0,1.38-4.84,19,19,0,0,0,.53-4.75,9.21,9.21,0,0,0-1.31-4.56,2.9,2.9,0,0,0-.78-.89,3.18,3.18,0,0,0-1.08-.43,31,31,0,0,0-5.77-.76,3,3,0,0,0-1.89.29,2,2,0,0,0-.79,1.81,6.09,6.09,0,0,0,.58,2" transform="translate(-38.95 -29)" fill="url(#linear-gradient-10)"/><path d="M126.58,139.06q1.8-5.92,4.09-11.69A.78.78,0,0,1,131,127a.74.74,0,0,1,.51,0l3.33.47a15.37,15.37,0,0,1-1.64,5.35,44.61,44.61,0,0,0-2.82,9.53,2.17,2.17,0,0,1-.3.93,2.11,2.11,0,0,1-1.4.73c-1.63.34-2.69.84-3-.82C125.48,141.92,126.24,140.18,126.58,139.06Z" transform="translate(-38.95 -29)" fill="url(#linear-gradient-11)"/><path d="M142.17,140.09l3.58,0a1,1,0,0,1,.7.17c.17.15.21.39.35.58.29.4.87.39,1.36.34a31.28,31.28,0,0,0,5.07-1l-.64-4.36a38.83,38.83,0,0,1-9.25.91l-.17-5.25,4.72,0a.72.72,0,0,0,.84-.89,13.74,13.74,0,0,0-.11-1.92.57.57,0,0,0-.17-.4.6.6,0,0,0-.44-.06,57,57,0,0,1-10.85.4,55.6,55.6,0,0,1-2.9,15.75c1.92-.21,4.2.12,6.05-.3.88-.2.84-.29,1.12-1.24C141.51,142.53,142.06,140.1,142.17,140.09Z" transform="translate(-38.95 -29)" fill="url(#linear-gradient-12)"/><path d="M241.87,66.35v61.47H115.77V66.35a7.68,7.68,0,0,1,7.67-7.67H234.2A7.68,7.68,0,0,1,241.87,66.35Z" transform="translate(-38.95 -29)" fill="#473f47"/><path d="M224.51,124.39a12.69,12.69,0,0,1-4.75,2.36.81.81,0,0,0-.57.27.74.74,0,0,0,0,.53,21.09,21.09,0,0,0,1.12,3.65,18.42,18.42,0,0,0,7.21-2.54,2.74,2.74,0,0,0,.92-.8,3,3,0,0,0,.3-1.25c.09-1.19.26-2.88-.44-3.93-.56-.82-.86-.28-1.6.23Z" transform="translate(-38.95 -29)" fill="#2559b2"/><path d="M225.41,124.19a12.62,12.62,0,0,1-4.75,2.36.79.79,0,0,0-.58.28.71.71,0,0,0,0,.52,21.06,21.06,0,0,0,1.11,3.65,18.47,18.47,0,0,0,7.22-2.54,2.6,2.6,0,0,0,.91-.8,2.68,2.68,0,0,0,.3-1.25c.09-1.18.27-2.88-.44-3.92-.55-.82-.86-.29-1.6.22Z" transform="translate(-38.95 -29)" fill="url(#linear-gradient-13)"/><path d="M240,67.82v58H117.67V67.82a7.4,7.4,0,0,1,7.44-7.36H232.53A7.4,7.4,0,0,1,240,67.82Z" transform="translate(-38.95 -29)" fill="#fff"/><path d="M240,67.82v58H117.67V67.82a7.4,7.4,0,0,1,7.44-7.36H232.53A7.4,7.4,0,0,1,240,67.82Z" transform="translate(-38.95 -29)" fill="#2559b2" opacity="0.18" style="isolation:isolate"/><rect x="89.3" y="39.05" width="40.28" height="37" fill="#2559b2" opacity="0.18" style="isolation:isolate"/><path d="M214.37,160.27a6.45,6.45,0,0,0-1.89,4.58,6.33,6.33,0,0,0,.55,2.61,6.46,6.46,0,0,0,4.26,3.65v1.48h-78a7.72,7.72,0,0,1-7.34-5.3,7.61,7.61,0,0,1-.4-2.44,7.73,7.73,0,0,1,7.74-7.74h78v1.48A6.58,6.58,0,0,0,214.37,160.27Z" transform="translate(-38.95 -29)" fill="#2559b2"/><path d="M217.29,171.11v1.48h-78a7.72,7.72,0,0,1-7.34-5.3c3,.52,21.71,3.51,32.15-2.44l48.9,2.61A6.46,6.46,0,0,0,217.29,171.11Z" transform="translate(-38.95 -29)" fill="url(#linear-gradient-14)"/><path d="M141.49,176.92c2.21.12,4.58.22,6.47-.94a1,1,0,0,0,.34-.3.65.65,0,0,0-.06-.63,1.37,1.37,0,0,0-.51-.42,7,7,0,0,0-2.25-.65c-1-.17-1.91-.33-2.87-.43-.62-.06-1.67-.31-2.17.19a1.92,1.92,0,0,0-.24,1.59C140.32,176.23,140.49,176.86,141.49,176.92Z" transform="translate(-38.95 -29)" fill="#fff" style="isolation:isolate"/><path d="M126.84,174.42c1.74,1.37,3.64,2.79,5.85,2.92a.82.82,0,0,0,.44-.06.64.64,0,0,0,.32-.55,1.43,1.43,0,0,0-.18-.64,7.57,7.57,0,0,0-1.48-1.81c-.69-.68-1.38-1.36-2.12-2-.47-.4-1.19-1.21-1.88-1.08s-.88.72-1.11,1.17C126.27,173.18,126.05,173.8,126.84,174.42Z" transform="translate(-38.95 -29)" fill="#fff" style="isolation:isolate"/><path d="M214.37,160.27a6.48,6.48,0,0,0,2.92,10.84v.22H170.61a6.48,6.48,0,1,1,0-13h46.68v.21A6.58,6.58,0,0,0,214.37,160.27Z" transform="translate(-38.95 -29)" fill="#fff"/><path d="M75.1,132.56l.23-.76a.37.37,0,0,1,.31-.26l4.61-.34a.23.23,0,0,1,.24.31l-.28.83a.44.44,0,0,1-.39.3l-4.44.27A.27.27,0,0,1,75.1,132.56Z" transform="translate(-38.95 -29)" fill="#fff"/><path d="M93.22,112.93a3.49,3.49,0,0,1-1.45,1.4A12.55,12.55,0,0,1,90,115a3,3,0,0,0-1.56,1l-.07.09q-.87-.52-1.77-1c.08-.16.23-.35.29-.47.13-.29.23-.59.35-.88a5.53,5.53,0,0,1,2.08-2.46c.07,0,.16-.09.23,0a.17.17,0,0,1,0,.14,2.48,2.48,0,0,1-.34,1.21l3.62-1.3a.49.49,0,0,1,.29-.05.43.43,0,0,1,.25.26A1.7,1.7,0,0,1,93.22,112.93Z" transform="translate(-38.95 -29)" fill="#ffbbab"/><path d="M144.12,171.91l0,2.2a21.59,21.59,0,0,1-4,.11.39.39,0,0,1-.46-.44c-.28-3.65.18-7.33-.24-10.95a8,8,0,0,0-.52-2.22,11.16,11.16,0,0,0-1.24-2,45.75,45.75,0,0,1-3.73-6.09,14.28,14.28,0,0,1-1.39-6.93c0-2.39,1.26-3.42,3.59-2.8a2.48,2.48,0,0,1,1,.4,2.65,2.65,0,0,1,.58.75,58.21,58.21,0,0,1,3.73,7.13C144,157.62,144.21,164.83,144.12,171.91Z" transform="translate(-38.95 -29)" fill="#473f47"/><path d="M144.12,171.91l0,2.2a21.59,21.59,0,0,1-4,.11.39.39,0,0,1-.46-.44c-.28-3.65.18-7.33-.24-10.95a8,8,0,0,0-.52-2.22,11.16,11.16,0,0,0-1.24-2,45.75,45.75,0,0,1-3.73-6.09,14.28,14.28,0,0,1-1.39-6.93c0-2.39,1.26-3.42,3.59-2.8a2.48,2.48,0,0,1,1,.4,2.65,2.65,0,0,1,.58.75,58.21,58.21,0,0,1,3.73,7.13C144,157.62,144.21,164.83,144.12,171.91Z" transform="translate(-38.95 -29)" fill="url(#linear-gradient-15)"/><path d="M145.39,129.82a19.73,19.73,0,0,0,11.44-8.56,2.54,2.54,0,0,0,.49-2.2.34.34,0,0,0-.17-.22c-.13-.06-.28,0-.41.11l-6.16,4a18.51,18.51,0,0,1-5.43,2.74,7,7,0,0,0-.63,1.9A3.47,3.47,0,0,0,145.39,129.82Z" transform="translate(-38.95 -29)" fill="#ffbbab"/><rect x="108.71" y="52.84" width="72.26" height="58.23" fill="#fff"/><path d="M157.84,138.91a2.54,2.54,0,0,1-1.11.42,30.22,30.22,0,0,1-8,.52,1.19,1.19,0,0,1-.74-.21,1.23,1.23,0,0,1-.33-.86,8.13,8.13,0,0,1,.16-2.46c0-.11,6.54-.1,7.16,0C155.85,136.46,159.38,137.67,157.84,138.91Z" transform="translate(-38.95 -29)" fill="#2559b2" opacity="0.16"/><path d="M213.9,115.91a4.42,4.42,0,0,0,0,1.58,5.42,5.42,0,0,0,1.08,2,33.71,33.71,0,0,1,4.61,9,19.58,19.58,0,0,0,.45-5.41,9.3,9.3,0,0,0-.14-1.9,12.46,12.46,0,0,0-1-2.49,19.05,19.05,0,0,1-1.31-4c-.2-1-.54-3.4-2.06-3.24C214.22,111.66,214,114.94,213.9,115.91Z" transform="translate(-38.95 -29)" fill="#2559b2" opacity="0.16"/><path d="M128,147.6a34.8,34.8,0,0,0,2.45,6.64c.86,1.81,2.85,4.13,2.84,6.17,0,3.68-3.87,8.59-6.25,11.11a21,21,0,0,0,4,2.06,1.48,1.48,0,0,0,1,.14,1.57,1.57,0,0,0,.82-.84l2.59-4.49c1.44-2.5,2.93-5.14,3.05-8a20.5,20.5,0,0,0-.22-3.13c-.27-2.21,0-4.71-.55-6.86-.49-2-1.13-3.9-1.58-5.89a4.34,4.34,0,0,0-1.34-2.69,3.59,3.59,0,0,0-1.17-.51c-2-.57-4.2-.64-5.3,1.45A7.13,7.13,0,0,0,128,147.6Z" transform="translate(-38.95 -29)" fill="#473f47"/><path d="M146,125.91c1.1.4.07,3-.22,3.73a.67.67,0,0,1-.87.53c-1.65-.15-3.3-.35-4.94-.59a2.66,2.66,0,0,1-1-.3,1.79,1.79,0,0,1-.73-1.18c-.15-.77-.23-2.61.44-3.2.48-.43,1.45-.12,2.08-.06A22,22,0,0,1,146,125.91Z" transform="translate(-38.95 -29)" fill="#fff"/><path d="M145.65,127c1.1.4.07,3-.23,3.73a.85.85,0,0,1-.31.47.87.87,0,0,1-.55.06c-1.66-.15-3.3-.35-4.94-.58a2.85,2.85,0,0,1-1.05-.31,1.77,1.77,0,0,1-.72-1.18c-.16-.77-.23-2.61.44-3.2.48-.42,1.44-.12,2.08-.06A22.1,22.1,0,0,1,145.65,127Z" transform="translate(-38.95 -29)" fill="url(#linear-gradient-16)"/><path d="M142.79,116.44c.2.33.59.52.72.87s-.14.88-.3,1.31c-.21.6-.14,1.28-.35,1.88a.72.72,0,0,1-.22.34.83.83,0,0,1-.32.13,4.77,4.77,0,0,1-1.36.08.38.38,0,0,0-.26,0,.35.35,0,0,0-.12.23,7.27,7.27,0,0,0,0,3.47c.1.37.21.83-.07,1.1a.72.72,0,0,1-.35.17,2.47,2.47,0,0,1-2.28-1.09,10.21,10.21,0,0,1-1.34-2,2.08,2.08,0,0,1-.23-.63,2.46,2.46,0,0,1,.12-.85,14.14,14.14,0,0,0,.45-2.89,11.37,11.37,0,0,1,.45-3.69,2,2,0,0,1,.76-1,2.43,2.43,0,0,1,1.34-.21,3.53,3.53,0,0,1,2.52.82C142.18,114.75,142.55,116,142.79,116.44Z" transform="translate(-38.95 -29)" fill="#ffbbab"/><path d="M142.42,113.48c.37-.07.64.43.5.77a1.15,1.15,0,0,1-.91.59,10.23,10.23,0,0,0-1.11.16.91.91,0,0,0-.69.8.85.85,0,0,0-.94.62,2.45,2.45,0,0,0,0,1.23c-.12.13-.33,0-.44-.09s-.18-.29-.32-.38c-.32-.17-.7.23-.66.59a1.63,1.63,0,0,0,.59.88.51.51,0,0,1,.16.2c.1.3-.3.51-.61.58a1.58,1.58,0,0,1-.08.69.57.57,0,0,1-.53.39c-.21,0-.38-.17-.57-.25s-.49,0-.51.18c-.32-.67,0-1.3-.12-2s-.64-.37-1-.76c-.19-.22-.18-.55-.27-.83s-.41-.65-.49-1c-.14-.62.38-1.18.85-1.6a.61.61,0,0,1,.15-.69,1.35,1.35,0,0,1,.68-.29.4.4,0,0,0,.18-.07c.08-.08.06-.21,0-.32-.15-1.89,2.93-1.37,4.06-1.27a3,3,0,0,1,1.33.45C141.9,112.18,142.84,113.4,142.42,113.48Z" transform="translate(-38.95 -29)" fill="#473f47"/><path d="M136.44,122.46l.07,0c1.65.41,4.05,1.91,4.59,3.58a14.76,14.76,0,0,1,.64,7.09c-.34,1.51-1.26,2.82-1.64,4.29a35.07,35.07,0,0,1-1.16,4.81,3.55,3.55,0,0,1-1.32,1.8,3.91,3.91,0,0,1-1.82.4c-1.85.1-4.45.73-6-.54a5,5,0,0,1-1.56-4.13,14.64,14.64,0,0,1,1.18-4.41l2.57-6.7C132.63,127.06,134.13,122,136.44,122.46Z" transform="translate(-38.95 -29)" fill="#fff"/><path d="M135.09,139a2.22,2.22,0,0,1,.28.78,2,2,0,0,1-.09.59,12,12,0,0,0-.33,3.33.74.74,0,0,0,.17.56.78.78,0,0,0,.5.15,3.62,3.62,0,0,0,1.91-.19,3.29,3.29,0,0,0,1.4-1.76,35.09,35.09,0,0,0,1.86-6.3,2.59,2.59,0,0,0,.1-1.07,2.08,2.08,0,0,0-1-1.28c-.45-.31-1-.53-1.39-.86-.85-.66-1.48-1.84-2.64-2a1.72,1.72,0,0,0-1.8,1.28C133.36,134.23,134.15,137.1,135.09,139Z" transform="translate(-38.95 -29)" fill="url(#linear-gradient-17)"/><path d="M137.88,127.35s2.35,6.37,2.82,6.84-4.54,3.28-4.54,3.28-3.26-6.19-3.1-8.88S136,124.82,137.88,127.35Z" transform="translate(-38.95 -29)" fill="#fff"/><path d="M136.16,136.61a2.37,2.37,0,0,0,2.69,2l4.26-.06c2,0,3.92-.09,5.88-.08a6.27,6.27,0,0,1,1.4.36,5.82,5.82,0,0,0,1.86.11,5.61,5.61,0,0,0,3.27-1.51,1.85,1.85,0,0,0,.67-2,.5.5,0,0,0-.2-.23.63.63,0,0,0-.24,0,9.5,9.5,0,0,1-3.53-.06.88.88,0,0,0,.14-.5c0-.17-.18-.34-.35-.3a.51.51,0,0,0-.23.16,2.74,2.74,0,0,1-2.3.91c-3.23-.15-6.41-.84-9.64-1a5.47,5.47,0,0,0-2.24.23A2.66,2.66,0,0,0,136.16,136.61Z" transform="translate(-38.95 -29)" fill="#ffbbab"/><path d="M224.07,121.36a7.49,7.49,0,0,0-2.14,1.45,3.1,3.1,0,0,0-1,2.33,4.13,4.13,0,0,0,1.63,2.6c.9.79,2,1.62,2.07,2.83.65-.48,1.24-1,1.9-1.5a25.3,25.3,0,0,1,3.83-1.81,6.16,6.16,0,0,0,3.17-2.7,7.7,7.7,0,0,0,.56-2.52,12.5,12.5,0,0,0,.07-2.8,4.11,4.11,0,0,0-1.16-2.49,7.51,7.51,0,0,0-3.47-1.47,3.74,3.74,0,0,0-3.29,2.31c-.26.7-.14,1.5-.4,2.19A3.23,3.23,0,0,1,224.07,121.36Z" transform="translate(-38.95 -29)" fill="#fc682d"/><path d="M213,178.09a2.39,2.39,0,0,0-.73.19.7.7,0,0,0-.39.6.77.77,0,0,0,.45.56c.22.11.47.16.69.28a3.84,3.84,0,0,0,.59.33,1.7,1.7,0,0,0,1.08-.15,14.2,14.2,0,0,1,4.88-.8,1.91,1.91,0,0,0,.48,0A1.44,1.44,0,0,0,221,178a7.19,7.19,0,0,0,0-3.13.87.87,0,0,0-.12-.33.57.57,0,0,0-.27-.16c-1.63-.62-2.33,1-3.4,1.88A8.73,8.73,0,0,1,213,178.09Z" transform="translate(-38.95 -29)" fill="#ffbbab"/><path d="M218.43,178.14l-.32,0a13.57,13.57,0,0,1-2.21.06.82.82,0,0,1-.4-.1.65.65,0,0,1-.24-.53,3,3,0,0,0,0-.6.24.24,0,0,0-.06-.11.2.2,0,0,0-.11,0,3.46,3.46,0,0,0-1.61.45,5.49,5.49,0,0,0-2.5,2,.48.48,0,0,0-.09.26.36.36,0,0,0,.09.22c.66,1,2.31.78,3.32.57s2.2-.67,3.34-.85,2.6-.1,3.68-.76a1.13,1.13,0,0,0,.43-.41,1.72,1.72,0,0,0-.44-1.76.27.27,0,0,0-.15-.11.32.32,0,0,0-.23.06c-.51.32-.85.88-1.37,1.2A2.81,2.81,0,0,1,218.43,178.14Z" transform="translate(-38.95 -29)" fill="#2559b2"/><path d="M229.61,136.37s5.09,2.92,3.67,8.25c-1.25,4.66-4.83,7.56-7.12,11.54-1.27,2.2-1,5.81-1.57,8.38a62,62,0,0,1-2.71,9.25c-.24.6-.61,1.31-1.26,1.33a8.93,8.93,0,0,1-.9-.17,4.25,4.25,0,0,1-.87,0c-.74-.17-.74-1.22-.57-2a61.23,61.23,0,0,0,1.46-10.87c.12-2.82-.64-5.81.16-8.55.63-2.16,4.41-13.76,4.41-13.76Z" transform="translate(-38.95 -29)" fill="#2559b2"/><path d="M229.61,136.37s5.09,2.92,3.67,8.25c-1.25,4.66-4.83,7.56-7.12,11.54-1.27,2.2-1,5.81-1.57,8.38a62,62,0,0,1-2.71,9.25c-.24.6-.61,1.31-1.26,1.33a8.93,8.93,0,0,1-.9-.17,4.25,4.25,0,0,1-.87,0c-.74-.17-.74-1.22-.57-2a61.23,61.23,0,0,0,1.46-10.87c.12-2.82-.64-5.81.16-8.55.63-2.16,4.41-13.76,4.41-13.76Z" transform="translate(-38.95 -29)" fill="url(#linear-gradient-18)"/><path d="M223.74,180.91a2.22,2.22,0,0,0-.66.36.67.67,0,0,0-.23.68.75.75,0,0,0,.57.43c.24.05.49,0,.73.1a5.54,5.54,0,0,0,.67.18,1.74,1.74,0,0,0,1-.42,14.23,14.23,0,0,1,4.53-2,2.25,2.25,0,0,0,.46-.15,1.46,1.46,0,0,0,.58-1.27,6.92,6.92,0,0,0-.81-3,.73.73,0,0,0-.19-.29.62.62,0,0,0-.3-.09c-1.74-.19-2,1.56-2.82,2.67A8.84,8.84,0,0,1,223.74,180.91Z" transform="translate(-38.95 -29)" fill="#ffbbab"/><path d="M229,140a6.57,6.57,0,0,1,3.58,1.74c2.13,1.81,2,5.51,1.26,8.22-.38,1.42-2.64,5.89-3,7.16-.63,2.4.63,5.38.74,7.81a62.07,62.07,0,0,1-.33,9.64c-.07.64-.26,1.41-.88,1.6-.3.08-.62,0-.92.06a4.13,4.13,0,0,1-.83.24c-.76,0-1-1-1-1.75a62.5,62.5,0,0,0-1.29-10.9c-.58-2.76-2.07-5.47-2-8.32l.21-7c.08-2.58-.28-5.19.51-7.67a1.39,1.39,0,0,1,.46-.77,1.44,1.44,0,0,1,.74-.2,14.75,14.75,0,0,1,2.3,0Z" transform="translate(-38.95 -29)" fill="#2559b2"/><path d="M225.32,113.88c-.19.32-.59.51-.72.87s.15.88.3,1.31c.22.6.15,1.28.36,1.88a.7.7,0,0,0,.21.34.73.73,0,0,0,.32.12,4.2,4.2,0,0,0,1.37.08.45.45,0,0,1,.26,0,.37.37,0,0,1,.12.23,7.27,7.27,0,0,1-.06,3.47c-.09.37-.2.83.08,1.1a.72.72,0,0,0,.35.17,2.51,2.51,0,0,0,2.28-1.1,10.41,10.41,0,0,0,1.33-2,2.08,2.08,0,0,0,.23-.63,2.14,2.14,0,0,0-.12-.86,14.63,14.63,0,0,1-.44-2.88,11.16,11.16,0,0,0-.46-3.7,2,2,0,0,0-.75-1,2.48,2.48,0,0,0-1.35-.21,3.46,3.46,0,0,0-2.51.82C225.94,112.19,225.56,113.47,225.32,113.88Z" transform="translate(-38.95 -29)" fill="#ffbbab"/><path d="M231.68,119.88s-3.73,1.93-4.86,3.44-3,2.63-2.26,5.5c.58,2.32-.05,4.48-.08,6.78,0,.63.27,1.14.26,1.78,0,1.12-1,2.11-.62,3.27.29.95,1.39,1.36,2.35,1.63l3.75,1.09a3.41,3.41,0,0,0,2.53.06c.94-.52,1.15-1.77,1.24-2.84.22-2.77.14-6.1,1.28-8.69a8,8,0,0,0,.68-4.73C235.71,125.07,234.8,119.51,231.68,119.88Z" transform="translate(-38.95 -29)" fill="#fff"/><path d="M226.52,111.87a2.58,2.58,0,0,0,.83,1.6c.44.41,1,.69,1.44,1.09a1.82,1.82,0,0,1,.73,1.58.79.79,0,0,1,1,.31.65.65,0,0,1-.1.69.84.84,0,0,1-.65.27,2.55,2.55,0,0,1,1.16.94c.32.47.48,1,.77,1.53a5,5,0,0,0,1.33,1.25,1.8,1.8,0,0,1,.58.62,9,9,0,0,0,.39,1.1,15.08,15.08,0,0,0,1.07,1.35,4.92,4.92,0,0,1,.84,2.53,4.39,4.39,0,0,1,0-.81c.09-.16.18-.32.26-.48a4.43,4.43,0,0,0,.34-.92,9,9,0,0,0,.06-2.2c0-1.57,1.48-4.53.29-5.88a12.78,12.78,0,0,0-1.51-1.07c-1-.87-1.2-2.4-1.86-3.59a4.5,4.5,0,0,0-2.75-2.15C229.15,109.2,226.33,109.69,226.52,111.87Z" transform="translate(-38.95 -29)" fill="#fc682d"/><path d="M231.56,122.31s-6.71,1.08-7.34.91-.63,5.56-.63,5.56,7-.21,9.26-1.67S234.67,122.66,231.56,122.31Z" transform="translate(-38.95 -29)" fill="#fff"/><path d="M224.35,128.36a2.37,2.37,0,0,1-3.08-1.35l-5.37-9.82c0-.86-.49-1.8-.22-2.61.14-.39.42-.71.56-1.09a2.29,2.29,0,0,0,0-1.55,7.33,7.33,0,0,0-.74-1.38.65.65,0,0,1,.75-.41,1.58,1.58,0,0,1,.78.49,5,5,0,0,1,1.4,3.57,4.08,4.08,0,0,0,0,1.21,2.58,2.58,0,0,0,.38.76c1.72,2.74,3.88,5.17,5.6,7.91a5.71,5.71,0,0,1,.9,2.07A2.67,2.67,0,0,1,224.35,128.36Z" transform="translate(-38.95 -29)" fill="#ffbbab"/><path d="M229.17,180l-.29.08a13.72,13.72,0,0,1-2,.33.71.71,0,0,1-.38,0,.62.62,0,0,1-.29-.46,2.55,2.55,0,0,0-.11-.55.15.15,0,0,0-.07-.09.17.17,0,0,0-.1,0,3.26,3.26,0,0,0-1.43.62,5.16,5.16,0,0,0-2,2.18.53.53,0,0,0-.05.25.45.45,0,0,0,.11.19c.74.87,2.22.43,3.12.1s1.94-.88,3-1.19,2.37-.43,3.28-1.17a1.1,1.1,0,0,0,.35-.42,1.61,1.61,0,0,0-.63-1.57.28.28,0,0,0-.15-.08.27.27,0,0,0-.2.09c-.44.36-.68.91-1.11,1.27A2.61,2.61,0,0,1,229.17,180Z" transform="translate(-38.95 -29)" fill="#2559b2"/><path d="M215.75,133.38H153V89.67h62.8Zm-62.24-.56h61.68V90.23H153.51Z" transform="translate(-38.95 -29)" fill="#2559b2"/><polygon points="119.65 96.53 117.31 94.11 128.59 83.21 135.88 86.55 148.53 74.81 155.18 79.01 168.14 68.41 170.27 71.01 155.44 83.15 148.92 79.04 136.52 90.55 129.28 87.23 119.65 96.53" fill="#2559b2"/><polygon points="172.64 75.64 169.28 75.64 169.28 69.9 163.38 69.9 163.38 66.53 172.64 66.53 172.64 75.64" fill="#2559b2"/></svg>