<?xml version="1.0" encoding="UTF-8"?>
<!-- Generator: Assembly 2.2 - http://assemblyapp.co -->
<svg version="1.1" xmlns="http://www.w3.org/2000/svg" xmlns:xlink="http://www.w3.org/1999/xlink" width="2048.00" height="2048.00" viewBox="0 0 2048.0 2048.0">		<g id="document" transform="matrix(1,0,0,1,1024.0,1024.0)">			<path d="M-310.157,370.714 C-290.897,374.482 -273.13,382.48 -258.021,394.079 L422.238,-139.177 C415.5,-157.804 413.101,-177.95 415.697,-198.284 L-310.157,370.714 L-310.157,370.714 Z M-206.317,476.664 L-104.072,726.773 C-59.9439,836.143 97.3219,830.057 134.895,718.466 L229.275,435.773 C245.769,386.487 290,352.306 341.424,348.549 L639.942,326.606 C758.202,318.837 802.096,167.291 706.706,97.8905 L485.15,-65.3774 L-206.317,476.664 L-206.317,476.664 Z M452.025,-349.878 L470.718,-426.089 L-540.674,366.742 L-462.877,367.315 L452.025,-349.878 L452.025,-349.878 Z M490.132,-564.424 C486.13,-581.011 478.814,-596.218 469.041,-609.449 L-724.373,326.07 C-713.072,338.292 -699.249,348.409 -683.275,355.411 L490.132,-564.424 L490.132,-564.424 Z M378.568,-661.643 C350.08,-664.629 319.831,-657.748 292.277,-637.888 L48.4749,-464.282 C6.63603,-434.94 -49.6268,-433.575 -92.8305,-460.496 L-346.465,-618.331 C-446.093,-680.099 -570.459,-584.092 -534.86,-471.527 L-444.637,-186.499 C-429.01,-138.47 -444.555,-84.5464 -484.148,-51.3145 L-713.379,141.54 C-742.471,166.104 -756.69,197.926 -758.683,229.849 L378.568,-661.643 L378.568,-661.643 Z " fill="#ffc400" fill-opacity="1.00"/>		</g>	</svg>